<svg xmlns="http://www.w3.org/2000/svg" viewBox="0 0 48 48" id="android">
  <g>
    <g>
      <circle cx="28" cy="9" r="2" fill="#f1f2f2"></circle>
      <circle cx="20" cy="9" r="2" fill="#f1f2f2"></circle>
      <path fill="#35dc86" d="M38 34v3a2.006 2.006 0 0 1-2 2h-3v6a2.006 2.006 0 0 1-2 2h-2a2.006 2.006 0 0 1-2-2v-6h-6v6a2.006 2.006 0 0 1-2 2h-2a2.006 2.006 0 0 1-2-2v-6h-3a2.006 2.006 0 0 1-2-2v-3H7a.979.979 0 0 1-1-1V23a1.959 1.959 0 0 1 2-2h32a1.959 1.959 0 0 1 2 2v10a.979.979 0 0 1-1 1zm0-19v2H10v-2a14 14 0 0 1 28 0zm-8-6a2 2 0 1 0-2 2 2.006 2.006 0 0 0 2-2zm-8 0a2 2 0 1 0-2 2 2.006 2.006 0 0 0 2-2z"></path>
      <path fill="#474c54" d="M10 18h28a1 1 0 0 0 1-1v-2a14.921 14.921 0 0 0-3.725-9.861l3.432-3.432A1 1 0 0 0 37.293.293l-3.432 3.432a14.914 14.914 0 0 0-19.722 0L10.707.293a1 1 0 0 0-1.414 1.414l3.432 3.432A14.921 14.921 0 0 0 9 15v2a1 1 0 0 0 1 1zm1-3a13 13 0 0 1 26 0v1H11zm29 5H8a2.916 2.916 0 0 0-3 3v10a1.959 1.959 0 0 0 2 2h2v2a3 3 0 0 0 3 3h2v5a3 3 0 0 0 3 3h2a3 3 0 0 0 3-3v-2a1 1 0 0 0-2 0v2a1 1 0 0 1-1 1h-2a1 1 0 0 1-1-1v-6a1 1 0 0 0-1-1h-3a1 1 0 0 1-1-1v-9a1 1 0 0 0-2 0v5H7V23a.915.915 0 0 1 1-1h31.988A.919.919 0 0 1 41 23v10h-2v-5a1 1 0 0 0-2 0v9a1 1 0 0 1-1 1h-3a1 1 0 0 0-1 1v6a1 1 0 0 1-1 1h-2a1 1 0 0 1-1-1v-6a1 1 0 0 0-1-1h-8a1 1 0 0 0 0 2h7v5a3 3 0 0 0 3 3h2a3 3 0 0 0 3-3v-5h2a3 3 0 0 0 3-3v-2h2a1.959 1.959 0 0 0 2-2V23a2.916 2.916 0 0 0-3-3z"></path>
      <path fill="#474c54" d="M20 6a3 3 0 1 0 3 3 3 3 0 0 0-3-3zm0 4a1 1 0 1 1 1-1 1 1 0 0 1-1 1zm8-4a3 3 0 1 0 3 3 3 3 0 0 0-3-3zm0 4a1 1 0 1 1 1-1 1 1 0 0 1-1 1z"></path>
    </g>
  </g>
</svg>
