 
<svg xmlns="http://www.w3.org/2000/svg" viewBox="0 0 149 179.25" id="hacker">
  <g>
    <g>
      <path fill="#444477" stroke="#2d2828" stroke-miterlimit="10" stroke-width="4" d="m140.39,153.32l-9.43,10.66c-5,5.65-12.18,8.89-19.73,8.89H37.77c-7.55,0-14.73-3.24-19.73-8.89l-9.43-10.66c-7.57-8.56-8.76-21.02-2.94-30.85l4.97-8.4c9.46-16.01,26.67-25.83,45.27-25.83h37.19c18.6,0,35.81,9.82,45.27,25.83l4.97,8.4c5.81,9.84,4.62,22.29-2.94,30.85h0Z"></path>
      <path fill="#934a2a" stroke="#2d2828" stroke-miterlimit="10" stroke-width="4" d="m124.26,53.45s0,.08-.01.11c-.03.54-.09,1.08-.17,1.62-.11.74-.25,1.48-.43,2.21-.09.37-.19.73-.29,1.09-.18.62-.39,1.23-.63,1.84-1.14,2.93-2.89,5.68-5.26,8.05l-34.22,34.22-8.75,8.75-42.97-42.97c-2.37-2.37-4.12-5.11-5.25-8.04-.17-.44-.33-.88-.47-1.33-.08-.25-.16-.5-.23-.75-.08-.29-.16-.58-.23-.87-.07-.28-.14-.57-.19-.86-.09-.44-.17-.89-.24-1.34-.05-.37-.1-.74-.13-1.12-.01-.03-.01-.05-.01-.08-.07-.71-.1-1.42-.1-2.14-.01-5.99,2.28-11.99,6.85-16.58l26.42-26.41c9.14-9.13,23.96-9.13,33.1,0l26.41,26.41c.58.58,1.11,1.17,1.62,1.79.5.61.96,1.24,1.39,1.89.43.65.82,1.32,1.18,2s.68,1.37.96,2.07c.28.71.53,1.42.75,2.15.16.54.3,1.08.42,1.63h0c.12.56.22,1.11.3,1.66.01,0,0,.01,0,.01.24,1.65.3,3.33.18,4.99Z"></path>
      <path fill="#444477" stroke="#2d2828" stroke-miterlimit="10" stroke-width="4" d="m124.26,53.45s0,.08-.01.11c-.03.54-.09,1.08-.17,1.62-.1.74-.24,1.48-.43,2.21-.09.37-.19.73-.29,1.09-.18.62-.39,1.23-.63,1.84-1.14-2.93-2.91-5.68-5.27-8.04-5.91-4.11-11.78-7.36-17.62-9.78-.2-.08-.41-.17-.61-.25-.88-.36-1.76-.7-2.64-1.02-.67-.25-1.34-.49-2.01-.71-.95-.32-1.89-.61-2.84-.88h-.01c-.54-.16-1.07-.3-1.61-.44-1.07-.29-2.15-.54-3.22-.76-2.08-.44-4.15-.77-6.21-.99-.07,0-.14-.01-.21-.02-1.07-.12-2.13-.2-3.2-.25-2.09-.11-4.18-.11-6.26,0h-.12c-.41.02-.81.04-1.21.08-.22.01-.45.03-.67.06-.4.02-.8.06-1.19.11-1.56.15-3.12.37-4.68.66-.52.09-1.04.19-1.56.31-1.03.21-2.07.45-3.1.72s-2.06.56-3.09.89c-.52.16-1.03.33-1.55.5-1.03.35-2.06.72-3.08,1.13-.51.2-1.03.41-1.54.62-5.95,2.46-11.84,5.81-17.7,10.02-2.36,2.36-4.13,5.12-5.25,8.05-.17-.44-.33-.88-.47-1.33-.08-.25-.16-.5-.23-.75-.08-.29-.16-.58-.23-.87-.07-.28-.14-.57-.19-.86-.09-.44-.17-.89-.24-1.34-.05-.37-.1-.74-.13-1.12-.01-.03-.01-.05-.01-.08-.07-.71-.1-1.42-.1-2.14-.01-5.99,2.28-11.99,6.85-16.58l26.42-26.41c9.14-9.13,23.96-9.13,33.1,0h.01l10.07,10.07s.01,0,0,.01l1.5,1.49h0s14.83,14.84,14.83,14.84c.58.58,1.11,1.17,1.62,1.79.5.61.96,1.24,1.39,1.89.43.65.82,1.32,1.18,2s.68,1.37.96,2.07c.29.71.54,1.42.75,2.15.16.54.3,1.08.42,1.63h0c.12.56.22,1.11.3,1.66.01,0,0,.01,0,.01.25,1.65.31,3.33.18,4.99Z"></path>
      <path fill="#051b35" d="m124.26,53.45s0,.08-.01.11c-.03.54-.09,1.08-.17,1.62-.1.74-.24,1.48-.43,2.21-.09.37-.19.73-.29,1.09-.18.62-.39,1.23-.63,1.84-1.14,2.93-2.89,5.68-5.26,8.05l-34.22,34.22-4.17,4.17-5.63-1.3c5.52-8.06,9.96-16.03,13.52-23.72,6.74-14.53,10.38-28.09,12.26-39.49,1.59-9.52,1.96-17.53,1.9-23.32l1.5,1.49h0s14.83,14.84,14.83,14.84c.58.58,1.11,1.17,1.62,1.79.5.61.96,1.24,1.39,1.89.43.65.82,1.32,1.18,2s.68,1.37.96,2.07c.29.71.54,1.42.75,2.15.16.54.3,1.08.42,1.63h0c.12.56.22,1.11.3,1.66.01,0,0,.01,0,.01.25,1.65.31,3.33.18,4.99Z" opacity=".05" style="isolation:isolate"></path>
      <path fill="#f8feff" stroke="#2d2828" stroke-linecap="round" stroke-linejoin="round" stroke-width="4" d="m106.35,52.73c-.64,4.35-3.3,7.6-5.91,7.19-.04,0-.11-.02-.15-.04v4.24c0,7.11-6.46,13.14-12.89,17.38-.08.04-.13.08-.21.11-3.85,2.51-8.26,3.79-12.69,3.79s-8.86-1.28-12.7-3.79c-.08-.04-.13-.08-.21-.11-6.44-4.24-12.89-10.26-12.89-17.38v-4.24s-.09.04-.15.04c-2.59.41-5.25-2.83-5.91-7.19-.68-4.33.96-8.2,3.57-8.59.88-.13,1.75.13,2.55.71.08-.88.22-1.74.47-2.59,16.5-6.89,33.37-6.96,50.61.24.21.77.34,1.54.41,2.35.79-.58,1.65-.84,2.53-.71,2.63.39,4.24,4.26,3.57,8.59h0Z"></path>
      <path fill="#f1d302" stroke="#2d2828" stroke-linecap="round" stroke-linejoin="round" stroke-width="4" d="m139.68,112.39l-14.54,57.29c-1.13,4.45-5.13,7.57-9.72,7.57H33.59c-4.59,0-8.59-3.12-9.72-7.57l-14.54-57.29c-1.61-6.34,3.18-12.5,9.72-12.5h110.91c6.54,0,11.33,6.16,9.72,12.5Z"></path>
      <path fill="#f8feff" stroke="#2d2828" stroke-linecap="round" stroke-linejoin="round" stroke-width="4" d="m87.11,138.58c0,6.96-5.64,12.6-12.6,12.6-.93,0-1.84-.1-2.72-.3-5.65-1.24-9.89-6.27-9.89-12.3,0-6.96,5.65-12.62,12.61-12.62,3.35,0,6.39,1.31,8.64,3.44,2.44,2.3,3.96,5.57,3.96,9.18Z"></path>
      <path fill="#051b35" d="M139.68 112.39l-14.54 57.29c-1.13 4.45-5.13 7.57-9.72 7.57h-41.97c31.27-21.68 41.26-62.79 43.89-77.36h12.62c6.54 0 11.33 6.16 9.72 12.5zM87.11 138.58c0 6.96-5.64 12.6-12.6 12.6-.93 0-1.84-.1-2.72-.3 5.64-6.24 9.28-15.07 11.36-21.48 2.44 2.3 3.96 5.57 3.96 9.18z" opacity=".05" style="isolation:isolate"></path>
    </g>
  </g>
</svg>
